<svg height="512pt" viewBox="-9 0 512 512.01257" width="512pt" xmlns="http://www.w3.org/2000/svg"><path d="m176.558594 361.945312v150.066407h141.242187v-229.515625h-141.242187zm97.101562 141.238282h-52.964844c-4.875 0-8.828124-3.949219-8.828124-8.828125 0-4.875 3.953124-8.824219 8.828124-8.824219h17.65625v-75.796875l-11.414062 11.414063c-3.464844 3.347656-8.96875 3.300781-12.375-.105469s-3.453125-8.910157-.109375-12.375l26.484375-26.484375c2.523438-2.523438 6.320312-3.277344 9.617188-1.910156 3.300781 1.363281 5.449218 4.582031 5.453124 8.152343v97.105469h17.652344c4.875 0 8.828125 3.949219 8.828125 8.824219 0 4.878906-3.953125 8.828125-8.828125 8.828125zm-26.480468-203.03125h44.136718c4.875 0 8.828125 3.949218 8.828125 8.824218s-3.953125 8.828126-8.828125 8.828126h-44.136718c-4.875 0-8.828126-3.953126-8.828126-8.828126s3.953126-8.824218 8.828126-8.824218zm-44.140626 0h8.828126c4.875 0 8.828124 3.949218 8.828124 8.824218s-3.953124 8.828126-8.828124 8.828126h-8.828126c-4.875 0-8.824218-3.953126-8.824218-8.828126s3.949218-8.824218 8.824218-8.824218zm0 0"/><path d="m326.636719 264.839844-.007813-17.65625h-158.898437v17.65625zm0 0"/><path d="m289.550781 211.875h-84.746093c-5.847657 0-10.589844 4.742188-10.589844 10.59375v7.0625h105.929687v-7.0625c0-5.851562-4.742187-10.59375-10.59375-10.59375zm0 0"/><path d="m335.453125 512.011719h141.242187v-185.378907h-141.242187zm70.621094-114.757813c-9.75 0-17.652344 7.90625-17.652344 17.65625 0 4.875-3.953125 8.828125-8.828125 8.828125s-8.828125-3.953125-8.828125-8.828125c0-19.503906 15.808594-35.3125 35.308594-35.3125 19.503906 0 35.3125 15.808594 35.3125 35.3125-.140625 10.015625-3.988281 19.625-10.804688 26.96875-5.570312 5.894532-11.804687 11.117188-18.582031 15.570313-5.292969 3.503906-10.234375 7.511719-14.753906 11.96875-4.152344 4.488281-6.914063 10.085937-7.941406 16.113281h43.253906c4.875 0 8.828125 3.949219 8.828125 8.824219 0 4.878906-3.953125 8.828125-8.828125 8.828125h-52.964844c-4.875 0-8.828125-3.949219-8.828125-8.828125-.503906-13.667969 4.394531-26.984375 13.628906-37.074219 5.296875-5.316406 11.113281-10.089844 17.363281-14.246094 5.671876-3.707031 10.910157-8.035156 15.617188-12.90625 3.894531-4.136718 6.152344-9.542968 6.355469-15.21875 0-9.75-7.90625-17.65625-17.65625-17.65625zm0 0"/><path d="m335.453125 308.976562h158.90625l-.007813-17.652343h-158.898437zm0 0"/><path d="m158.902344 353.117188v-17.65625h-158.8945315v17.65625zm0 0"/><path d="m158.902344 512.011719v-141.242188h-141.242188v141.242188zm-98.867188-118.289063c8.054688-10.859375 21.609375-16.152344 34.894532-13.625 13.28125 2.523438 23.949218 12.425782 27.457031 25.484375 3.503906 13.054688-.765625 26.96875-10.992188 35.808594 9.710938 8.457031 14.035157 21.542969 11.269531 34.121094-2.761718 12.578125-12.171874 22.648437-24.53125 26.253906-12.363281 3.609375-25.710937.183594-34.804687-8.933594-2.296875-2.21875-3.214844-5.5-2.410156-8.585937.808593-3.085938 3.21875-5.496094 6.304687-6.304688 3.085938-.808594 6.371094.113282 8.585938 2.40625 5.648437 5.660156 14.394531 6.816406 21.320312 2.816406 6.925782-3.996093 10.300782-12.144531 8.226563-19.867187s-9.078125-13.085937-17.074219-13.078125h-8.828125c-4.875 0-8.824219-3.953125-8.824219-8.828125s3.949219-8.828125 8.824219-8.828125h8.828125c8.304688 0 15.484375-5.78125 17.25-13.894531 1.769531-8.113281-2.355469-16.359375-9.90625-19.8125-7.550781-3.457031-16.484375-1.179688-21.46875 5.460937-2.921875 3.898438-8.457031 4.691406-12.355469 1.765625-3.902343-2.925781-4.691406-8.457031-1.765625-12.359375zm0 0"/><path d="m211.957031 107.824219c1.03125 2.941406 2.066407 5.882812 3.117188 8.828125 10.042969 28.246094 19.621093 55.179687 17.152343 77.566406h29.90625c-2.472656-22.386719 7.105469-49.308594 17.152344-77.566406 1.042969-2.945313 2.078125-5.886719 3.117188-8.828125 23.171875-17.980469 53.050781-49.089844 53.050781-79.296875.445313-8.121094-2.652344-16.03125-8.492187-21.691406-5.234376-4.59375-12.015626-7.035157-18.976563-6.8242192-13.246094-.00781255-25.574219 6.7656252-32.664063 17.9570312h-56.25c-7.09375-11.199219-19.4375-17.9804688-32.695312-17.9570312-6.964844-.2070308-13.746094 2.2343752-18.980469 6.8320312-5.835937 5.660156-8.933593 13.566406-8.492187 21.683594 0 30.207031 29.882812 61.316406 53.054687 79.296875zm96.027344-90.15625c2.542969-.144531 5.050781.636719 7.0625 2.199219 2.078125 2.378906 3.074219 5.515624 2.753906 8.660156 0 14.828125-11.246093 31.699218-25 46.175781 4.890625-19.324219 6.425781-37.078125-.425781-50.554687 4.191406-4.066407 9.769531-6.382813 15.609375-6.480469zm-76.625 15.675781c4.035156 2.699219 5.136719 8.148438 2.464844 12.203125-5.53125 8.878906-5.53125 20.132813 0 29.015625 1.820312 2.621094 2.082031 6.019531.691406 8.886719-1.394531 2.871093-4.226563 4.765625-7.410156 4.960937-3.1875.191406-6.226563-1.351562-7.953125-4.03125-9.453125-14.804687-9.453125-33.75 0-48.554687 2.6875-4.046875 8.148437-5.160157 12.207031-2.488281zm-52.039063-13.488281c2.011719-1.5625 4.519532-2.339844 7.0625-2.195313 5.839844.097656 11.417969 2.417969 15.609376 6.488282-6.859376 13.460937-5.296876 31.230468-.425782 50.546874-13.761718-14.46875-25.007812-31.339843-25.007812-46.167968-.320313-3.148438.679687-6.289063 2.761718-8.671875zm0 0"/></svg>