<?xml version="1.0" encoding="utf-8"?>
<!-- Svg Vector Icons : http://www.onlinewebfonts.com/icon -->
<!DOCTYPE svg PUBLIC "-//W3C//DTD SVG 1.1//EN" "http://www.w3.org/Graphics/SVG/1.1/DTD/svg11.dtd">
<svg version="1.1" xmlns="http://www.w3.org/2000/svg" xmlns:xlink="http://www.w3.org/1999/xlink" x="0px" y="0px" viewBox="0 0 1000 1000" enable-background="new 0 0 1000 1000" xml:space="preserve">
<metadata> Svg Vector Icons : http://www.onlinewebfonts.com/icon </metadata>
<g><path d="M500,990C229.8,990,10,770.2,10,500C10,229.8,229.8,10,500,10c270.2,0,490,219.8,490,490C990,770.2,770.2,990,500,990z M196.2,596.2c0,1,0.5,1.8,0.6,2.8c0.2,2.3,0.6,4.5,1.4,6.7c0.5,1.3,1.1,2.5,1.7,3.7c0.9,1.7,1.9,3.2,3.2,4.7c1.6,1.9,3.3,3.5,5.3,4.9c0.2,0.2,0.4,0.5,0.7,0.6l2.4,1.5c1,0.5,1.8,1.3,2.8,1.7l146.3,88.8c12.5,7.6,29.1,3.6,36.7-9l2.2-3.7c7.6-12.5,3.6-29-9-36.6L328.9,625h453.4c15.9,0,28.8-13,28.8-28.8c0-15.9-13-28.8-28.8-28.8H230.5c-8.6-1.8-17.3,0.9-23.7,7c-1.7,1.4-3.2,3.1-4.5,4.9c0,0-0.1,0.1-0.1,0.1l-0.3,0.4c-2.3,3.2-3.8,6.8-4.7,10.7c-0.3,1.3-0.7,2.6-0.8,4C196.5,595.1,196.2,595.6,196.2,596.2z M811.8,438.6c-0.2-8.8-4.3-17.4-12.3-22.2l-151.5-92c-12.5-7.6-29-3.6-36.7,9l-2.2,3.7c-7.6,12.5-3.6,29.1,9,36.7l63.5,38.5H226.2c-15.9,0-28.8,13-28.8,28.8c0,15.9,13,28.8,28.8,28.8h557.3c1.9,0,3.5-0.7,5.3-1.1c0.5-0.1,1-0.2,1.5-0.3c11.5-2.9,20.1-12.4,21.4-24.5c0.1-0.5,0.2-1,0.3-1.5c0-0.5,0.3-1,0.3-1.5C812.3,440.2,811.8,439.5,811.8,438.6z"/></g>
</svg>